<svg xmlns="http://www.w3.org/2000/svg" width="1000" height="220" viewBox="0 0 1000 220" role="img" aria-labelledby="title desc">
  <title id="title">About Gia Phat</title><desc id="desc">About Gia Phat for Gia Phat's GitHub profile</desc>
  <defs>
    <linearGradient id="surface" x1="0" y1="0" x2="1" y2="1"><stop stop-color="#222B40"/><stop offset="1" stop-color="#191F33"/></linearGradient>
    <linearGradient id="accent" x1="0" y1="0" x2="1" y2="0"><stop stop-color="#A99BCB"/><stop offset=".55" stop-color="#D8A6BF"/><stop offset="1" stop-color="#C9B58A"/></linearGradient>
    <filter id="softGlow" x="-30%" y="-30%" width="160%" height="160%"><feGaussianBlur stdDeviation="7"/></filter>
    
  </defs>
  <rect width="1000" height="220" rx="22" fill="#151B2D"/>
  <rect x="1" y="1" width="998" height="218" rx="21" fill="none" stroke="#44445E"/>
  <g>
    <text x="42" y="38" fill="#C9B58A" font-family="Inter,Segoe UI,Arial,sans-serif" font-size="11" letter-spacing="3">01 / ABOUT</text>
    <text x="42" y="72" fill="#F3EFF7" font-family="Georgia,Times New Roman,serif" font-size="27">Building useful intelligence</text>
    <rect x="42" y="91" width="916" height="1.5" rx="1" fill="url(#accent)" opacity=".65"/>
    <path d="M42 25h18M42 25v18M958 25h-18M958 25v18" fill="none" stroke="#C9B58A" opacity=".55"/>
  </g>
    <rect x="42" y="116" width="5" height="70" rx="2.5" fill="url(#accent)"/>
    <text x="68" y="133" fill="#F3EFF7" font-family="Inter,Segoe UI,Arial,sans-serif" font-size="15.5">Master&apos;s student in Artificial Intelligence at National Central University, Taiwan.</text><text x="68" y="158" fill="#B8BACB" font-family="Inter,Segoe UI,Arial,sans-serif" font-size="15.5">Interested in designing, building, and deploying practical intelligent systems, with a</text><text x="68" y="183" fill="#B8BACB" font-family="Inter,Segoe UI,Arial,sans-serif" font-size="15.5">focus on LLM applications, agentic workflows, and production-oriented AI engineering.</text>
    <circle cx="925" cy="151" r="29" fill="#222B40" stroke="#44445E"/><path d="M912 152l9 9 18-22" fill="none" stroke="#D8A6BF" stroke-width="3" stroke-linecap="round" stroke-linejoin="round"/>
  
</svg>
